<svg xmlns="http://www.w3.org/2000/svg" width="256" height="256" viewBox="0 0 256 256">
  <defs>
    <linearGradient id="bg" x1="0" y1="0" x2="1" y2="1">
      <stop offset="0" stop-color="#10141b"/>
      <stop offset="1" stop-color="#2166d1"/>
    </linearGradient>
  </defs>
  <rect width="256" height="256" rx="48" fill="url(#bg)"/>
  <rect x="48" y="58" width="160" height="140" rx="22" fill="#1c2430" stroke="#dce8f8" stroke-width="8"/>
  <path d="M78 156 L104 112 L126 146 L151 91 L180 156" fill="none" stroke="#3f8cff" stroke-width="13" stroke-linecap="round" stroke-linejoin="round"/>
  <circle cx="78" cy="156" r="8" fill="#f4f7fb"/>
  <circle cx="180" cy="156" r="8" fill="#f4f7fb"/>
  <g fill="#dce8f8">
    <rect x="76" y="36" width="12" height="22" rx="4"/>
    <rect x="110" y="36" width="12" height="22" rx="4"/>
    <rect x="144" y="36" width="12" height="22" rx="4"/>
    <rect x="178" y="36" width="12" height="22" rx="4"/>
    <rect x="76" y="198" width="12" height="22" rx="4"/>
    <rect x="110" y="198" width="12" height="22" rx="4"/>
    <rect x="144" y="198" width="12" height="22" rx="4"/>
    <rect x="178" y="198" width="12" height="22" rx="4"/>
  </g>
</svg>
